<svg width="20" height="20" viewBox="0 0 20 20" fill="none" xmlns="http://www.w3.org/2000/svg">
<path d="M18.3087 15.2753C18.3087 15.5753 18.242 15.8837 18.1003 16.1837C17.9587 16.4837 17.7753 16.767 17.5337 17.0337C17.1253 17.4837 16.6753 17.8087 16.167 18.017C15.667 18.2253 15.1253 18.3337 14.542 18.3337C13.692 18.3337 12.7837 18.1337 11.8253 17.7253C10.867 17.317 9.90866 16.767 8.95866 16.0753C8.00033 15.3753 7.09199 14.6003 6.22533 13.742C5.36699 12.8753 4.59199 11.967 3.90033 11.017C3.21699 10.067 2.66699 9.11699 2.26699 8.17533C1.86699 7.22533 1.66699 6.31699 1.66699 5.45033C1.66699 4.88366 1.76699 4.34199 1.96699 3.84199C2.16699 3.33366 2.48366 2.86699 2.92533 2.45033C3.45866 1.92533 4.04199 1.66699 4.65866 1.66699C4.89199 1.66699 5.12533 1.71699 5.33366 1.81699C5.55033 1.91699 5.74199 2.06699 5.89199 2.28366L7.82533 5.00866C7.97533 5.21699 8.08366 5.40866 8.15866 5.59199C8.23366 5.76699 8.27533 5.94199 8.27533 6.10033C8.27533 6.30033 8.21699 6.50033 8.10033 6.69199C7.99199 6.88366 7.83366 7.08366 7.63366 7.28366L7.00033 7.94199C6.90866 8.03366 6.86699 8.14199 6.86699 8.27533C6.86699 8.34199 6.87533 8.40033 6.89199 8.46699C6.91699 8.53366 6.94199 8.58366 6.95866 8.63366C7.10866 8.90866 7.36699 9.26699 7.73366 9.70033C8.10866 10.1337 8.50866 10.5753 8.94199 11.017C9.39199 11.4587 9.82533 11.867 10.267 12.242C10.7003 12.6087 11.0587 12.8587 11.342 13.0087C11.3837 13.0253 11.4337 13.0503 11.492 13.0753C11.5587 13.1003 11.6253 13.1087 11.7003 13.1087C11.842 13.1087 11.9503 13.0587 12.042 12.967L12.6753 12.342C12.8837 12.1337 13.0837 11.9753 13.2753 11.8753C13.467 11.7587 13.6587 11.7003 13.867 11.7003C14.0253 11.7003 14.192 11.7337 14.3753 11.8087C14.5587 11.8837 14.7503 11.992 14.9587 12.1337L17.717 14.092C17.9337 14.242 18.0837 14.417 18.1753 14.6253C18.2587 14.8337 18.3087 15.042 18.3087 15.2753Z" stroke="#ED1B23" stroke-width="1.5" stroke-miterlimit="10"/>
</svg>
